<svg xmlns="http://www.w3.org/2000/svg" viewBox="0 0 677.08 708.37"><g id="Camada_2" data-name="Camada 2">

<style>
    .color {
        fill:#9b59b6;
    }
</style>

<g id="Camada_1-2" data-name="Camada 1"><path class="color" d="M676.92,397.24c2.58,113.27-51.34,190.35-137.54,248-164.92,110.4-360.06,68-479.24-65.69-25-28-42.5-61.24-54.47-97.26-8.93-26.86-7.89-52.61,7.25-76.34,18.69-29.29,23-61.27,24.54-95.08,2.81-62.78,13.61-124,47.41-178.74,37.71-61.1,93.48-97.72,161.37-116.71C315.65-3.95,385.6-5.67,455.48,13.64c60,16.58,106.55,52,142,102.78,48.16,69,66.5,147.92,76.11,229.69C675.74,364.69,677.66,383.29,676.92,397.24ZM162.16,341.43c-.49,12,1.32,29.18-2.18,46.15-5,24-23.49,34.46-46.55,25.59C106.24,410.41,99.72,405.9,93,402,84.9,397.37,77.25,391.81,68.82,388c-11.08-5-22.88-3.85-28.94,7.15-12.24,22.16-21,46.38-12.09,71.62,45.45,129.47,167.54,205.62,293.8,213.4,74.72,4.61,142.74-16.79,204.38-58.58C619.61,558,661.19,469.63,650.09,357.06,643.2,287.19,621.78,221,595.91,156.18c-11.48-28.73-27.43-54.91-54.08-72.68A339.72,339.72,0,0,0,418.69,32.94c-99.86-19.88-191-.3-271,64-20.74,16.66-38.4,36.6-51.56,59.88-3.56,6.29-10.59,16,3.9,19.3,35.08,8,49.64,33.57,55.64,65.54C161.51,272.86,162.63,304.57,162.16,341.43Zm-75-92.74c-.77,9.69,1.15,22.12,4.94,34,3.57,11.17,10.48,21.48,23.13,22.58,13.1,1.14,18.93-9.6,22.69-20.1,10.73-30,2.61-57.32-14.34-82.46-6.64-9.83-15.65-8.7-23.75-.44C87.86,214.47,86.93,230,87.2,248.69Z"/><path class="color" d="M423.8,344.59c1.71-38.21.21-76.83,14.1-113.53,6.08-16.08,14-30.82,26.33-43.44,35.07-36,84.2-19.3,106.26,15.38,22.19,34.89,29.11,75,34.37,115.29,1.74,13.32,2,26.84,2.9,40.28,1,15.45-6.68,25.37-20.15,31.85-39.78,19.12-81.46,30.44-125.8,30.92-23.17.25-32.95-8.84-35.73-31.71C424.26,374.65,423.91,359.66,423.8,344.59Zm102.71-99.5c-.35-13.76.49-24.7-4.11-35-9-20.17-25.93-25.11-43.72-12.67-28.59,20-35.42,64.14-14.1,91.14,13.87,17.57,41.54,15.08,52.25-4.78C523.83,270.81,528.38,257.21,526.51,245.09Z"/><path class="color" d="M278.87,541.54c100.75-7.06,196.92-28.19,286.79-73.82,12-6.09,24.55-12.63,20.28-30.4-1.12-4.67.87-9.66,6.67-10.61s8.24,3.26,10.26,7.7c5.56,12.25,1.19,31.11-12.28,38.26-17.33,9.2-25.53,24.6-35.38,39.89-49.42,76.68-118.15,125.55-208.83,141.15-48.31,8.32-92.67-3.78-133.87-29.15-43.93-27-81.36-60.8-108.28-105.34C97.48,508.05,86.66,502,75.67,495.89c-21-11.65-26.76-25.22-20.66-46.2,1.49-5.13,2.53-10.91,9.61-9.73,6.78,1.12,5.12,7,4.56,11.32C67.78,462,69.87,471,80.07,476.5,142.53,510.51,207.21,537.65,278.87,541.54Zm-92.6.72c-8.5-1.2-12.48,1.28-16.05,4.41-4.68,4.1-13.6,6.59-8,15.5,4.66,7.38,12,7.25,19.42,4.55,1.44-.53,2.69-1.57,4.09-2.23,12.37-5.85,22.14-2.6,28.16,9.53,3.53,7.11,4.66,14.84,4.79,22.68.13,7.56,3.62,12.79,10.25,16.11,13.44,6.73,26.44,14.36,41.13,18.38,48.57,13.29,94.4,3.72,139.56-15.21,17.19-7.2,28.73-15.24,27.17-37.08-1.26-17.6,12.77-25.7,29.71-20.4,3.94,1.23,7.54,3.68,11.52,4.66,9.94,2.44,16.75-3,22.83-9.91,5.09-5.74,4.71-11.41-.79-16.35-6.64-6-8.69-19.55-22.28-14.46-31.32,11.7-64.25,16.76-96.78,23.31-55.25,11.13-110.83,17.34-166.78,4.65C203.69,548,193.4,544.36,186.27,542.26Z"/><path class="color" d="M401.9,226.48c5.15-24.77,14.56-50.21,33.93-71a32.91,32.91,0,0,1,8.58-6.46c3.86-2,8.31-2.42,11.25,1.53,2.6,3.5.75,7.27-1.93,9.78-21.12,19.75-29.33,45.69-35.37,72.75-1.28,5.76-3.35,11.44-10.88,10.54C403.19,243.13,401.24,237.45,401.9,226.48Z"/></g></g></svg>