<svg xmlns="http://www.w3.org/2000/svg" viewBox="0 0 718.4 674.66"><g id="Camada_2" data-name="Camada 2"><g id="Camada_1-2" data-name="Camada 1"><path d="M335.32,674.31c-83.47-2-161-12.95-230.84-55.34C49.42,585.54,10,540.57,1.31,474.2c-3.65-27.89.73-55.56,8.15-82.26,10.13-36.5,12.74-72.43,2.39-109.33-12.52-44.66-2-88.49,7.07-132.18,2.59-12.45,11.8-16.91,23.57-19,26.35-4.73,52.14-1.06,77.65,4.65C137.59,140,153,137.8,168.68,129c38.88-21.88,77.77-43.55,112.39-72.11a318.9,318.9,0,0,0,42.4-42.83C332,3.8,342.13-.21,354.81,0c19,.32,38.11,1.32,57.1.54C430.67-.22,443.7,7.42,455,21.91c24.77,31.85,51.69,61.66,86.26,83.59C560.87,118,581.82,126.85,605,128.79c23.79,2,38.07,13.09,42.86,36.92,5.3,26.31,21.67,47.15,35.68,69.14,29.87,46.85,43.81,96.79,28.84,152.23-4.93,18.29-14.4,33.95-26.79,48-10.57,12-19.18,24.89-22.7,40.87-17.64,80.13-70.25,130.73-141.64,163.88-45.36,21.06-94.07,30.34-144.07,31.86C361.91,672.14,346.88,675.77,335.32,674.31Zm-292.87-374c5-7.65,9.83-15.37,15-22.89,1.89-2.77,4.78-4.89,8.3-2.82,2.54,1.49,3.2,4.5,2.54,7.21a47.49,47.49,0,0,1-3.68,10.72C46.56,327.1,35.54,364,27.91,402c-16.47,82.1,7.58,142.75,75,188.12a314.84,314.84,0,0,0,88.37,41.2c65.74,19.1,132.82,22.14,200.38,15.29C457,640,518.87,622.06,571.57,580.78c36.34-28.47,61.88-63.73,65.19-112,4.17-60.89-11.85-117.28-36.65-171.89-3.15-6.92-6.45-13.79-9.46-20.77-1.09-2.51-1.63-5.54,1.13-7.35,2.55-1.67,5.29-.62,7.55,1.07,5.43,4.06,7.93,10.21,11.24,15.83,3.58,6.08,4.9,13.9,13,19,12.41-47.33,13.2-92.85,1.62-138.59-2.55-10.07-8.69-13.9-19-13.81-23.44.19-46.66,2.63-69.8,5.91-12,1.69-24.41,2-35.32,7.36.44,7.34,13.59,8.92,6.84,16.74-4.81,5.56-11.09.05-16.32-2.36-78.19-36-160.31-35.57-243.17-25.37a215.51,215.51,0,0,0-83,28c-4.07,2.38-9.62,5.45-13.14.11s1-8.91,5.46-11.57c1.79-1.06,4.06-1.8,2.81-6.69-34.7-7.43-70.42-13.14-107-11.86-9.82.34-14.21,6.92-16.71,15.29C23.62,212.08,29.56,255.83,42.45,300.33ZM653.4,233.78c.89,27-3.22,52-8.37,76.77-6.72,32.29,1,62.61,11.57,92.41,5.4,15.16,14.08,16.31,25.37,4.11Q706.06,381,700.1,345.42c-5.48-32.54-17.13-62.83-31.84-92.08C665,246.84,663.13,239.1,653.4,233.78ZM387.88,110.89c-6,14.64,2.2,20.53,19.7,21.94,17.25,1.39,34.15,6,50.61,11.7,11.09,3.82,22.29,4.48,33.58,1,3.48-1.08,8.57-.1,9.81-4.41,1.55-5.36-3.79-7.28-7.12-9.56-32.86-22.42-60.87-48.93-75.19-87.3-4.54-12.15-15-1.77-22.52-5.28-4.62-2.15-4.39,7.17-4.28,11.54C393,69.56,390.43,88.37,387.88,110.89ZM357,30.64C346,64.43,337.17,79.11,315.35,99.76c-7.45,7.06-15.68,13.31-23.42,20.07-2.34,2.06-5.83,4.21-4.42,7.9,1.49,3.87,5.42,2.45,8.52,2.37,20.57-.55,41.14-1.5,61.71-1.51,11.16,0,15.26-5.65,16.57-15.65,2.11-16.11,4.58-32.17,4.28-48.49-.21-11.59,5.28-26.41-15.54-25.89C361.51,38.6,359.86,34.54,357,30.64ZM186.72,144.37C252,146.12,331.81,84.16,336.07,35.91,293.17,83.53,240.83,114.89,186.72,144.37Zm355.74-11.08c-42.67-29.49-78.52-62.52-110-104.5C432.86,71.65,508.09,142.79,542.46,133.29Z"/><path d="M475.29,489.08c-40.66.53-50.49-10.37-40.39-50.23,16.71-65.91,62.57-106.23,122.68-132.25,14-6.06,17.32-2.48,15.18,13.06-.78,5.68,2,9.25,4.85,13.19,20.77,28.63,30.08,61.17,32.4,96,1.74,26.21-3,32.63-27.83,39.77C547.17,478.67,512.15,488.68,475.29,489.08Zm89.85-63.4c0,4.88-.07,9.77,0,14.65.11,5.32-1,11.63,5.67,13.78s12.81-.05,17.81-5.09c4.14-4.18,4.92-9.49,5.1-15,1-31.82-6.45-61.38-24.39-87.83-4.19-6.18-10-11.42-15.57-16.46-4.23-3.81-9.49-2.71-13.35.82s0,6.82,1.89,9.91C558.17,366.66,565.38,395.19,565.14,425.68Zm-85.38-4.13c.57,9.69,1.31,19.89,12.88,19.43,12.3-.48,12.63-11.48,12.46-20.71s-1.42-21.08-12.83-20.7C479.49,400,481.36,413.13,479.76,421.55Z"/><path d="M229,453.63c.32,29.26-9.11,38.55-35,37.24-42.66-2.16-83.42-13.91-124-26-10-3-14.81-10.34-15.09-20.79-1.14-41.22,6.71-79.92,31.92-113.71,3.48-4.65,5.6-8.53,2.12-14.6-4.66-8.12.46-10.86,7.91-10.52a29.17,29.17,0,0,1,9.47,2.24c61,24.68,103.21,66.78,120.93,131.27C228.94,444.94,228.79,451.64,229,453.63ZM97.28,428.22c-.32-29.28,4.9-57.22,19.94-82.89,2.63-4.5,10.56-9.29,3.76-15.21-7-6.11-13-.68-18.24,4.53-29.17,29-36.43,65.73-35.72,104.79.25,14.1,13.46,15.14,22.92,15.94,11.81,1,6.4-9.72,7.25-15.76C97.71,435.89,97.28,432,97.28,428.22Zm85-8c-1.15-9-1.81-21.13-13.2-20.37-11.8.78-12.07,13.28-12.24,23-.17,9.51,2.94,18.65,13.91,17.68S181.52,429,182.29,420.22Z"/><path d="M336.68,638.71c-82.54-3.08-151.74-24.08-212.41-69.89a83.24,83.24,0,0,1-18-18.68c-9.57-13.77-21.34-24.41-36.38-31.83-6.12-3-11.81-8.86-7.92-15.62s11.16-2.21,15.79.79c47.18,30.7,101.29,34.06,154.82,39.45,28.23,2.84,56.3,5.11,81,21.5,9.55,6.33,21.63,8.19,31.09,1.63,32.91-22.83,71.26-20.86,108.16-25.82,46.88-6.29,94.19-11,135.12-38.4,4.56-3,10.45-6.13,14.29.12s-1.22,10.79-6.13,13c-19.68,8.9-30.58,26.94-45.28,41.19-44,42.65-99.1,64-158.15,75.64C372,635.9,350.65,637.05,336.68,638.71Zm-5.34-16.35c63.7-.14,122-18.32,175.76-52.07,6.14-3.85,13.11-7.88,9.82-16.42-3.44-9-11.63-6-18.39-4.76a555.93,555.93,0,0,1-72.7,8.88c-22.27,1.21-44.88,3.76-64.29,16-22.24,14-43.19,11.21-64.42-1.37-9.4-5.56-19.08-10.68-30.18-11.66-35.71-3.16-71.47-5.81-106.84-12-4.23-.74-9.07-2-11.45,3.18a12.25,12.25,0,0,0,2.17,13.72,44.71,44.71,0,0,0,10.26,7.85C213.52,604.93,269.83,622.67,331.34,622.36Z"/><path d="M404.77,223.17c18-1.13,34.65,1.77,51.34,3.65,16,1.81,21.65,11.42,12.72,24.82-17.44,26.18-37.28,50.65-61.91,70.68-8.8,7.16-18.66,8.45-28.91,3.12-20.24-10.52-40.13-21.71-58.33-35.51-19.29-14.63-18.38-29,2.11-42C347.44,231.71,374.19,219,404.77,223.17Zm1.51,16.3c-26.18-4.75-48.08,6.64-69.67,18.57-12.3,6.79-12.92,14.07-1.45,22,12.92,8.95,26.9,16.37,40.13,24.91,12.45,8,22.87,4.72,31.81-5.28,13.4-15,26.14-30.55,39.5-45.56,6.86-7.72,3.13-10.12-4.68-11C430.05,241.81,418.16,240.68,406.28,239.47Z"/><path d="M385.81,414c.25,23.45-4.47,28-27.8,25.12-11.24-1.4-22.74-2.68-33.09-7.91-13.69-6.91-16.59-16.51-8-29.17,9.15-13.54,20.77-25.1,33.36-35.4,11.71-9.6,21.66-6.54,28.53,7.52C382.15,381.06,385.67,401,385.81,414Zm-31,8.4c8.14.07,17.1-.26,15.09-10.07-2.06-10.1,2.89-23.92-10.59-29.38-4.46-1.8-28.43,22.8-27.26,27.88C335,423.73,347.22,419.43,354.79,422.41Z"/><path d="M300.15,321.64c0,14-19.45,29.59-37.25,29.84-13.09.19-26.93-14.57-27.32-29.15s22.53-31.1,42.33-30.33C289.4,292.45,300.2,306.83,300.15,321.64Z"/><path d="M439.12,369.42c-7.16-1-9-5-6.84-10.54,8.77-22.43,24.39-39.17,44.4-52,3.21-2.06,7.21-2.9,10.37.57a5.81,5.81,0,0,1-.53,8.72c-17.82,13.66-32.35,30-42.73,50C443,367.79,440.43,368.54,439.12,369.42Z"/><path d="M182.68,306a51.14,51.14,0,0,1,6,3.19,115.83,115.83,0,0,1,40.61,47.52c1.8,3.86,3.58,8.81-1.43,11.54-4.81,2.63-8.73-.84-10.62-4.75-9-18.57-22.94-32.58-39.15-44.78-3.07-2.3-5.4-5.58-3.44-9.86C176,306,178.42,305.19,182.68,306Z"/></g></g></svg>