<svg xmlns="http://www.w3.org/2000/svg" viewBox="0 0 709.33 651.34"><g id="Camada_2" data-name="Camada 2"><g id="Camada_1-2" data-name="Camada 1"><path d="M709,37.28c-2.33,60-21,113.89-59.24,160.59a101.49,101.49,0,0,1-30.23,24.53c-8.21,4.51-11.2,9.88-7.52,19.89,15.74,42.89,18.17,88.14,21.87,133.07,1,12.54,1.83,25.1,6.2,36.87,30.15,81.11-6.4,131.34-57.6,170.56C528.63,624,465,639.6,398.62,647.69c-48.05,5.85-95.45,5.38-142.27-6.74-56.65-14.66-108.27-40-151-80.34-38.42-36.29-55.07-80.95-39.09-133.18,10.46-34.17,14.34-69.1,17.56-104.2,2.46-26.77,8.61-52.58,16.39-78,3.17-10.37,1.93-16.74-7.21-23.47C26.38,172.68,4.14,102.54.06,23.93-.69,9.4,5.24,2.89,20.14,3.61c64.69,3.16,124.21,20.54,174.62,63,12.13,10.21,21.11,23.38,30.57,36,6.64,8.86,13.94,11.52,25.32,8,67.8-21,136-19.83,204.18-1.53,14.81,4,24.09,1.36,34.2-12.38,36.3-49.35,85.1-80.14,146.34-89.47C653.08,4.5,670.6.83,688.68.05c15.94-.69,22,5.55,20.41,20.92C708.54,26.35,709,31.84,709,37.28ZM152.86,565.41c20.49,14.61,40.3,25.88,61.77,33.74,65.93,24.14,133.29,34.46,203.34,21.37,44.81-8.37,87.3-22.47,126.63-45.69,3.67-2.17,8.5-3.77,7.83-9.2-.55-4.49-5.06-5.17-8.47-6.66-3-1.3-6.06-2.42-9-3.78-44.22-20.22-48.47-78.73-27.72-105.58,24.9-32.24,60.66-40,98.76-20.68,4,2,8.21,7.91,12.84,3.61,4-3.69.77-9.38-.86-13.82-8.72-23.86-9.37-48.64-11.29-73.69-3.71-48.44-12.89-96-41.72-137.14-3.35-4.79-9.09-10.22-2.66-15.51,6.08-5,11.64.54,15.14,5.13,8.64,11.33,17.19,9.84,27.91,2.73,12.58-8.36,17.94-19.35,18.5-34.12A273.8,273.8,0,0,0,605.6,56c-4.59-11.92-9.54-12.2-19.2-7.37-27.58,13.77-51.92,31.76-72.14,55-21.3,24.51-21.08,24.66,3.31,43.91,3.24,2.56,8.62,5,5.21,10.12-2.83,4.27-8,3-12,1.07-8.31-4-16.06-9.28-24.55-12.8-93.65-38.82-186.16-38-277.5,8-6.78,3.41-16.22,14.46-22,4.15-4.7-8.31,8.16-11.93,14.91-15.68,11.2-6.21,13.64-12.62,5.83-24.52C186.93,86.57,158,66.6,124.9,51.25c-9.44-4.38-14.06-.34-18.22,7.28A169.88,169.88,0,0,0,86,130.06c-1,16.69-2.7,33.78,2.15,50.31,4.24,14.47,16.34,21.71,28.77,26.92,9.19,3.86,12.07-6.88,17.26-11.85,3.52-3.37,7.59-8.21,12.53-4.75,6.08,4.28,2,9.53-1,14.17A251.06,251.06,0,0,0,105.08,324c-2.64,34.72-4.21,69.4-16.53,102.51-1.57,4.21-4.63,8.88-.66,13.6,56.09-28.24,99.65-23.13,117.78,14S220.64,538.61,152.86,565.41Zm-6.71-133.08c-30.32-1.62-54.9,20-57,50.22C87.51,506.8,118.89,543.8,142,545.23c33.56,2.09,58.2-29.58,59.95-53.32C204,463.38,176.06,433.93,146.15,432.33Zm363.48,58c.16,29.08,26.15,54.86,55.34,54.9,26.8,0,56.28-33.55,55.73-63.5-.47-25.71-28.09-49.66-56.93-49.35C534.23,432.65,509.45,459.17,509.63,490.29Z"/><path d="M261.52,353.29c-.12,32.64-23.75,55.36-57.55,55.32-32.06,0-56.76-22.33-56.45-51,.41-38.41,22.76-63.13,57.12-63.19C240,294.38,261.65,316.8,261.52,353.29ZM200.2,334.81c-.9,11.76,8.42,22.91,19.36,22.59,11.53-.33,17.28-8.2,18.69-18.83,1.57-11.84-8-22.87-19.73-23.41C204.23,314.51,202.69,325.62,200.2,334.81Z"/><path d="M562.05,356.32c0,31.52-21.26,52.19-53.87,52.34-37.53.16-57.79-20.5-57.75-58.89,0-35.18,19.61-55.26,53.91-55.31C541,294.41,562,317,562.05,356.32Zm-91.28-19.18c.36,10.18,10.05,20.55,19.26,20.61,10.32.08,20.25-11.84,19.42-23.7-.78-11.07-6.18-18.56-17.86-19.21C480.37,314.22,470.35,325.4,470.77,337.14Z"/><path d="M355.55,582c-16.84-.2-27.31-9.4-35.84-21.07-12.8-17.51-18.53-38-21.91-59-2.28-14.12-5.1-26.65-20.46-31.94a13.8,13.8,0,0,1-5.18-3.88c-4.83-5.3-14.45-10.54-7.31-18.45,6-6.71,11.42,2.24,16.12,5.81,18.69,14.21,40.83,13.86,60.85-2.84,9.23-7.7,16.06-8,25.47-.2,22.41,18.62,42.6,18,65.36-.84,4.49-3.72,9.29-7.14,14.15-2,4.65,5-.31,8.79-3.35,12.47a4.08,4.08,0,0,1-1.13,1.17c-23.41,11.75-29.64,32.32-32.94,56.71-2.19,16.17-10.54,31.75-20.39,45.75C380.43,576,368.76,581.17,355.55,582Zm42.82-88.45c.07-5.12.8-12.52-7.1-15C379.88,475,368.36,466.67,358,467c-14.8.49-29.43,8.66-43.92,14.13-3,1.13-3.4,5.52-2.89,8.79,3.68,23.65,7.28,47.28,26.1,65,14.72,13.84,26.79,13.25,39.51-2.74C390.07,535.45,395.94,515.89,398.37,493.58Z"/></g></g></svg>